<svg width="97" height="22" viewBox="0 0 97 22" fill="none" xmlns="http://www.w3.org/2000/svg">
<path d="M1.56236 17.8033L0.163569 15.8234H1.17402L2.12414 17.2397L3.0818 15.8234H4.0847L2.68214 17.8033L4.15634 19.871H3.15343L2.12414 18.3559L1.09861 19.871H0.0957031L1.56236 17.8033Z" fill="white"/>
<path d="M4.25437 15.8234H5.21957L6.06789 18.118C6.19608 18.445 6.28154 18.7524 6.32427 19.0403H6.35444C6.37706 18.9061 6.41853 18.7438 6.47886 18.5535C6.53918 18.3608 6.8584 17.4508 7.43652 15.8234H8.39418L6.61082 20.409C6.28657 21.2507 5.74616 21.6716 4.98958 21.6716C4.79352 21.6716 4.60249 21.6508 4.41649 21.6094V20.9287C4.54971 20.9579 4.70178 20.9726 4.8727 20.9726C5.3 20.9726 5.60037 20.7323 5.77381 20.2516L5.92839 19.871L4.25437 15.8234Z" fill="white"/>
<path d="M13.0279 21.3019H12.2022V19.871H9.3443V21.3019H8.52614V19.205H8.86547C9.16207 18.7926 9.39709 18.2949 9.57052 17.7118C9.74647 17.1263 9.85078 16.4968 9.88346 15.8234H12.4171V19.205H13.0279V21.3019ZM11.5462 19.205V16.4822H10.6488C10.6011 16.9848 10.5005 17.48 10.3472 17.968C10.1964 18.456 10.0116 18.8683 9.79297 19.205H11.5462Z" fill="white"/>
<path d="M17.4995 17.8399C17.4995 18.5011 17.3248 19.0171 16.9754 19.3879C16.626 19.7588 16.1397 19.9442 15.5163 19.9442C15.1267 19.9442 14.7824 19.8588 14.4832 19.688C14.1841 19.5173 13.9541 19.2721 13.7933 18.9524C13.6324 18.6328 13.552 18.262 13.552 17.8399C13.552 17.1836 13.7254 16.6713 14.0723 16.3029C14.4192 15.9344 14.908 15.7502 15.5389 15.7502C16.1422 15.7502 16.6198 15.9393 16.9717 16.3175C17.3236 16.6932 17.4995 17.2007 17.4995 17.8399ZM14.4644 17.8399C14.4644 18.7743 14.8201 19.2416 15.5314 19.2416C16.2352 19.2416 16.5871 18.7743 16.5871 17.8399C16.5871 16.9152 16.2327 16.4529 15.5239 16.4529C15.1519 16.4529 14.8816 16.5724 14.7132 16.8115C14.5473 17.0506 14.4644 17.3934 14.4644 17.8399Z" fill="white"/>
<path d="M20.5761 17.7887V15.8234H21.4018V17.7887L23.0079 15.8234H23.943L22.3029 17.7814L24.09 19.871H23.1135L21.4018 17.8179V19.871H20.5761V17.8179L18.8681 19.871H17.8954L19.6788 17.7814L18.0424 15.8234H18.9775L20.5761 17.7887Z" fill="white"/>
<path d="M26.5558 19.9442C25.9073 19.9442 25.3996 19.7612 25.0326 19.3953C24.6681 19.0269 24.4859 18.5206 24.4859 17.8765C24.4859 17.2153 24.6556 16.6957 24.9949 16.3175C25.3342 15.9393 25.8005 15.7502 26.3937 15.7502C26.9442 15.7502 27.379 15.9125 27.6982 16.237C28.0174 16.5615 28.1771 17.0079 28.1771 17.5764V18.0412H25.3983C25.4109 18.434 25.5202 18.7365 25.7263 18.9488C25.9325 19.1586 26.2228 19.2635 26.5973 19.2635C26.8436 19.2635 27.0724 19.2416 27.2835 19.1976C27.4971 19.1513 27.7259 19.0757 27.9697 18.9707V19.6697C27.7535 19.7698 27.5348 19.8405 27.3137 19.882C27.0925 19.9235 26.8398 19.9442 26.5558 19.9442ZM26.3937 16.4017C26.1122 16.4017 25.886 16.4883 25.715 16.6615C25.5466 16.8347 25.4461 17.0872 25.4134 17.419H27.3061C27.3011 17.0848 27.2181 16.8323 27.0573 16.6615C26.8964 16.4883 26.6752 16.4017 26.3937 16.4017Z" fill="white"/>
<path d="M30.8653 19.9442C30.2344 19.9442 29.7543 19.7661 29.425 19.4099C29.0983 19.0513 28.9349 18.5377 28.9349 17.8692C28.9349 17.1885 29.1058 16.6652 29.4477 16.2992C29.792 15.9332 30.2884 15.7502 30.9369 15.7502C31.3768 15.7502 31.7727 15.8295 32.1246 15.9881L31.8569 16.6798C31.4824 16.5383 31.1732 16.4675 30.9294 16.4675C30.208 16.4675 29.8473 16.9323 29.8473 17.8619C29.8473 18.3157 29.9365 18.6572 30.115 18.8866C30.296 19.1135 30.5599 19.2269 30.9068 19.2269C31.3014 19.2269 31.6747 19.1318 32.0266 18.9415V19.6917C31.8682 19.782 31.6985 19.8466 31.5176 19.8857C31.3391 19.9247 31.1217 19.9442 30.8653 19.9442Z" fill="white"/>
<path d="M36.14 15.8234V16.4968H34.7827V19.871H33.8929V16.4968H32.5355V15.8234H36.14Z" fill="white"/>
<path d="M40.5626 16.8591C40.5626 17.3373 40.2748 17.6264 39.6992 17.7265V17.7557C40.0209 17.7923 40.2672 17.8911 40.4381 18.0522C40.6091 18.2132 40.6945 18.4218 40.6945 18.678C40.6945 19.061 40.5437 19.3562 40.2421 19.5636C39.943 19.7685 39.5069 19.871 38.9338 19.871H36.9431V15.8234H38.9262C40.0171 15.8234 40.5626 16.1687 40.5626 16.8591ZM39.7859 18.6267C39.7859 18.4316 39.708 18.2937 39.5521 18.2132C39.3963 18.1302 39.1625 18.0888 38.8508 18.0888H37.8291V19.2342H38.8735C39.4817 19.2342 39.7859 19.0317 39.7859 18.6267ZM39.6765 16.9323C39.6765 16.7713 39.6112 16.6554 39.4805 16.5846C39.3523 16.5115 39.16 16.4749 38.9036 16.4749H37.8291V17.4483H38.7717C39.0683 17.4483 39.2932 17.4117 39.4465 17.3385C39.5999 17.2629 39.6765 17.1275 39.6765 16.9323Z" fill="white"/>
<path d="M43.4318 19.9442C42.7833 19.9442 42.2755 19.7612 41.9086 19.3953C41.5441 19.0269 41.3619 18.5206 41.3619 17.8765C41.3619 17.2153 41.5315 16.6957 41.8709 16.3175C42.2102 15.9393 42.6765 15.7502 43.2697 15.7502C43.8201 15.7502 44.255 15.9125 44.5742 16.237C44.8934 16.5615 45.053 17.0079 45.053 17.5764V18.0412H42.2743C42.2869 18.434 42.3962 18.7365 42.6023 18.9488C42.8084 19.1586 43.0987 19.2635 43.4732 19.2635C43.7196 19.2635 43.9483 19.2416 44.1595 19.1976C44.3731 19.1513 44.6018 19.0757 44.8456 18.9707V19.6697C44.6295 19.7698 44.4108 19.8405 44.1896 19.882C43.9684 19.9235 43.7158 19.9442 43.4318 19.9442ZM43.2697 16.4017C42.9881 16.4017 42.7619 16.4883 42.591 16.6615C42.4226 16.8347 42.322 17.0872 42.2894 17.419H44.1821C44.177 17.0848 44.0941 16.8323 43.9332 16.6615C43.7724 16.4883 43.5512 16.4017 43.2697 16.4017Z" fill="white"/>
<path d="M46.9457 15.8234V17.4483H48.9101V15.8234H49.7961V19.871H48.9101V18.1254H46.9457V19.871H46.0597V15.8234H46.9457Z" fill="white"/>
<path d="M51.9527 15.8234V17.4483H53.917V15.8234H54.8031V19.871H53.917V18.1254H51.9527V19.871H51.0667V15.8234H51.9527Z" fill="white"/>
<path d="M58.6827 19.871L58.5055 19.3074H58.4754C58.2743 19.5538 58.0719 19.7222 57.8683 19.8125C57.6647 19.9003 57.4033 19.9442 57.0841 19.9442C56.6744 19.9442 56.3539 19.8369 56.1227 19.6222C55.8939 19.4075 55.7796 19.1037 55.7796 18.7109C55.7796 18.2937 55.9392 17.979 56.2584 17.7667C56.5776 17.5545 57.064 17.4386 57.7175 17.419L58.4377 17.3971V17.1812C58.4377 16.9226 58.3748 16.7298 58.2491 16.6029C58.126 16.4736 57.9337 16.409 57.6723 16.409C57.4586 16.409 57.2538 16.4395 57.0577 16.5005C56.8617 16.5615 56.6731 16.6334 56.4922 16.7164L56.2056 16.1016C56.4318 15.9869 56.6794 15.9003 56.9484 15.8417C57.2173 15.7807 57.4712 15.7502 57.71 15.7502C58.2403 15.7502 58.64 15.8625 58.9089 16.0869C59.1804 16.3114 59.3161 16.6639 59.3161 17.1446V19.871H58.6827ZM57.3631 19.2855C57.6848 19.2855 57.9425 19.1989 58.136 19.0256C58.3321 18.85 58.4301 18.6048 58.4301 18.29V17.9387L57.8947 17.9607C57.4775 17.9753 57.1733 18.0436 56.9823 18.1656C56.7938 18.2852 56.6995 18.4694 56.6995 18.7182C56.6995 18.8988 56.7548 19.0391 56.8654 19.1391C56.976 19.2367 57.1419 19.2855 57.3631 19.2855Z" fill="white"/>
<path d="M60.9789 19.871H59.9873L61.1485 18.2132C60.867 18.1351 60.6458 17.9961 60.4849 17.796C60.3241 17.5935 60.2436 17.3434 60.2436 17.0458C60.2436 16.6627 60.3844 16.3638 60.6659 16.1491C60.9474 15.932 61.332 15.8234 61.8196 15.8234H63.7199V19.871H62.8301V18.312H61.9893L60.9789 19.871ZM61.107 17.0531C61.107 17.2605 61.1875 17.4166 61.3483 17.5215C61.5117 17.624 61.7304 17.6752 62.0044 17.6752H62.8301V16.4749H61.8649C61.6236 16.4749 61.4363 16.5249 61.3031 16.6249C61.1724 16.7249 61.107 16.8677 61.107 17.0531Z" fill="white"/>
<path d="M69.6883 15.8234V16.4968H67.8785V19.871H66.9925V15.8234H69.6883Z" fill="white"/>
<path d="M73.1004 19.871L72.9232 19.3074H72.8931C72.692 19.5538 72.4896 19.7222 72.286 19.8125C72.0824 19.9003 71.821 19.9442 71.5018 19.9442C71.0921 19.9442 70.7716 19.8369 70.5404 19.6222C70.3117 19.4075 70.1973 19.1037 70.1973 18.7109C70.1973 18.2937 70.3569 17.979 70.6761 17.7667C70.9953 17.5545 71.4817 17.4386 72.1352 17.419L72.8554 17.3971V17.1812C72.8554 16.9226 72.7925 16.7298 72.6668 16.6029C72.5437 16.4736 72.3514 16.409 72.09 16.409C71.8763 16.409 71.6715 16.4395 71.4754 16.5005C71.2794 16.5615 71.0909 16.6334 70.9099 16.7164L70.6233 16.1016C70.8496 15.9869 71.0971 15.9003 71.3661 15.8417C71.635 15.7807 71.8889 15.7502 72.1277 15.7502C72.6581 15.7502 73.0577 15.8625 73.3267 16.0869C73.5981 16.3114 73.7338 16.6639 73.7338 17.1446V19.871H73.1004ZM71.7808 19.2855C72.1026 19.2855 72.3602 19.1989 72.5537 19.0256C72.7498 18.85 72.8478 18.6048 72.8478 18.29V17.9387L72.3124 17.9607C71.8952 17.9753 71.591 18.0436 71.4 18.1656C71.2115 18.2852 71.1172 18.4694 71.1172 18.7182C71.1172 18.8988 71.1725 19.0391 71.2831 19.1391C71.3937 19.2367 71.5596 19.2855 71.7808 19.2855Z" fill="white"/>
<path d="M78.3977 19.871H77.5042V16.4968H76.3542C76.2838 17.3654 76.1883 18.0436 76.0677 18.5316C75.9495 19.0195 75.7937 19.3757 75.6002 19.6002C75.4091 19.8247 75.1603 19.9369 74.8536 19.9369C74.6601 19.9369 74.498 19.9101 74.3673 19.8564V19.183C74.4603 19.2172 74.5533 19.2342 74.6463 19.2342C74.9026 19.2342 75.1037 18.9549 75.2495 18.3962C75.3978 17.835 75.5134 16.9774 75.5964 15.8234H78.3977V19.871Z" fill="white"/>
<path d="M81.4894 19.9442C80.8409 19.9442 80.3332 19.7612 79.9662 19.3953C79.6017 19.0269 79.4195 18.5206 79.4195 17.8765C79.4195 17.2153 79.5891 16.6957 79.9285 16.3175C80.2678 15.9393 80.7341 15.7502 81.3273 15.7502C81.8777 15.7502 82.3126 15.9125 82.6318 16.237C82.951 16.5615 83.1106 17.0079 83.1106 17.5764V18.0412H80.3319C80.3445 18.434 80.4538 18.7365 80.6599 18.9488C80.866 19.1586 81.1563 19.2635 81.5309 19.2635C81.7772 19.2635 82.0059 19.2416 82.2171 19.1976C82.4307 19.1513 82.6595 19.0757 82.9033 18.9707V19.6697C82.6871 19.7698 82.4684 19.8405 82.2472 19.882C82.026 19.9235 81.7734 19.9442 81.4894 19.9442ZM81.3273 16.4017C81.0458 16.4017 80.8195 16.4883 80.6486 16.6615C80.4802 16.8347 80.3797 17.0872 80.347 17.419H82.2397C82.2347 17.0848 82.1517 16.8323 81.9908 16.6615C81.83 16.4883 81.6088 16.4017 81.3273 16.4017Z" fill="white"/>
<path d="M86.2325 19.9442C85.7046 19.9442 85.2949 19.76 85.0033 19.3916H84.9505C84.9857 19.7332 85.0033 19.9406 85.0033 20.0137V21.6716H84.1173V15.8234H84.8337C84.8538 15.8991 84.8953 16.0796 84.9581 16.3651H85.0033C85.2798 15.9552 85.6946 15.7502 86.2475 15.7502C86.7678 15.7502 87.1725 15.9332 87.4616 16.2992C87.7532 16.6652 87.8989 17.1787 87.8989 17.8399C87.8989 18.5011 87.7506 19.0171 87.454 19.3879C87.16 19.7588 86.7528 19.9442 86.2325 19.9442ZM86.0175 16.4529C85.6657 16.4529 85.408 16.5529 85.2446 16.753C85.0838 16.9531 85.0033 17.2727 85.0033 17.7118V17.8399C85.0033 18.3327 85.0838 18.6902 85.2446 18.9122C85.4055 19.1318 85.6682 19.2416 86.0326 19.2416C86.3393 19.2416 86.5756 19.1196 86.7414 18.8756C86.9073 18.6316 86.9903 18.2839 86.9903 17.8326C86.9903 17.3788 86.9073 17.036 86.7414 16.8042C86.5781 16.57 86.3368 16.4529 86.0175 16.4529Z" fill="white"/>
<path d="M90.7493 19.9442C90.1008 19.9442 89.5931 19.7612 89.2261 19.3953C88.8616 19.0269 88.6794 18.5206 88.6794 17.8765C88.6794 17.2153 88.8491 16.6957 89.1884 16.3175C89.5277 15.9393 89.994 15.7502 90.5872 15.7502C91.1377 15.7502 91.5725 15.9125 91.8917 16.237C92.2109 16.5615 92.3706 17.0079 92.3706 17.5764V18.0412H89.5918C89.6044 18.434 89.7137 18.7365 89.9198 18.9488C90.126 19.1586 90.4163 19.2635 90.7908 19.2635C91.0371 19.2635 91.2658 19.2416 91.477 19.1976C91.6906 19.1513 91.9194 19.0757 92.1632 18.9707V19.6697C91.947 19.7698 91.7283 19.8405 91.5071 19.882C91.2859 19.9235 91.0333 19.9442 90.7493 19.9442ZM90.5872 16.4017C90.3057 16.4017 90.0795 16.4883 89.9085 16.6615C89.7401 16.8347 89.6396 17.0872 89.6069 17.419H91.4996C91.4946 17.0848 91.4116 16.8323 91.2508 16.6615C91.0899 16.4883 90.8687 16.4017 90.5872 16.4017Z" fill="white"/>
<path d="M93.8033 19.871H92.8117L93.9729 18.2132C93.6914 18.1351 93.4702 17.9961 93.3094 17.796C93.1485 17.5935 93.0681 17.3434 93.0681 17.0458C93.0681 16.6627 93.2088 16.3638 93.4903 16.1491C93.7719 15.932 94.1564 15.8234 94.6441 15.8234H96.5443V19.871H95.6545V18.312H94.8137L93.8033 19.871ZM93.9315 17.0531C93.9315 17.2605 94.0119 17.4166 94.1728 17.5215C94.3361 17.624 94.5548 17.6752 94.8288 17.6752H95.6545V16.4749H94.6893C94.448 16.4749 94.2607 16.5249 94.1275 16.6249C93.9968 16.7249 93.9315 16.8677 93.9315 17.0531Z" fill="white"/>
<path d="M0 11.7307H6.52484C9.09814 11.7307 10.4153 10.5995 10.4153 8.44607V8.41256C10.4153 6.81216 9.5779 5.84019 7.96414 5.56368V5.41286C9.31621 5.16149 10.0228 4.30683 10.0228 2.91591V2.87401C10.0228 0.980348 8.79283 0 6.38527 0H0V11.7307ZM2.5733 4.80119V1.65905H5.61764C6.84759 1.65905 7.4582 2.17855 7.4582 3.20079V3.23431C7.4582 4.27331 6.84759 4.80119 5.61764 4.80119H2.5733ZM2.5733 10.0632V6.32618H5.69615C7.04822 6.32618 7.7199 6.94623 7.7199 8.16119V8.1947C7.7199 9.4348 7.04822 10.0632 5.69615 10.0632H2.5733Z" fill="white"/>
<path d="M12.8393 0V11.7307H15.3777V0H12.8393Z" fill="white"/>
<path d="M20.689 11.9485C22.7389 11.9485 24.2305 11.0687 24.7801 9.57724L24.9545 9.61914C24.6231 11.2447 24.972 11.9485 26.9783 11.9485C27.2313 11.9485 27.4842 11.9234 27.6936 11.8899L27.9902 10.4403L27.554 10.4319C27.0742 10.4235 26.9347 10.3146 26.9347 9.71969V5.68937C26.9347 3.69516 25.5564 2.73995 22.6168 2.73995C19.4939 2.73995 17.915 3.92139 18.0459 5.96588L20.5494 6.16697C20.4447 4.81795 21.16 4.20628 22.5644 4.20628C23.8205 4.20628 24.4137 4.65037 24.4137 5.66423V6.1586L21.9364 6.59431C19.459 7.03839 17.8191 7.79251 17.8191 9.6359V9.66104C17.8191 11.119 18.8484 11.9485 20.689 11.9485ZM21.7008 10.323C20.846 10.323 20.3837 10.0297 20.3837 9.42642V9.40966C20.3837 8.54662 21.1949 8.1947 22.7999 7.89306L24.4137 7.59141V8.00198C24.4137 9.35101 23.1489 10.323 21.7008 10.323Z" fill="white"/>
<path d="M30.1263 11.7307H32.6647V7.64169C32.6647 5.66423 33.6329 4.44089 35.238 4.44089C36.433 4.44089 37.0262 5.0358 37.0262 6.17535V11.7307H39.5646V5.58882C39.5646 3.74543 38.4393 2.77346 36.3458 2.77346C34.4442 2.77346 33.1444 3.57785 32.3768 5.25366L32.2023 5.17825C32.5513 4.18114 32.6734 3.58623 32.6734 2.93266H30.1263V11.7307Z" fill="white"/>
<path d="M47.1177 11.9401C50.1097 11.9401 51.7845 10.7838 52.0375 8.54662L49.4729 8.27011C49.3683 9.67779 48.5657 10.39 47.1264 10.39C45.5127 10.39 44.6753 9.41804 44.6753 7.49924V7.08867C44.6753 5.21176 45.5214 4.26493 47.1003 4.26493C48.557 4.26493 49.3159 5.04418 49.4293 6.60268L51.959 6.32618C51.7584 3.95491 50.1446 2.72319 47.109 2.72319C43.8117 2.72319 42.0758 4.27331 42.0758 7.23949V7.34842C42.0758 10.3649 43.7942 11.9401 47.1177 11.9401Z" fill="white"/>
<path d="M54.5661 11.7307H57.1045V7.64169C57.1045 5.66423 58.0641 4.44927 59.6778 4.44927C60.8729 4.44927 61.4661 5.0358 61.4661 6.17535V11.7307H64.0045V5.58882C64.0045 3.74543 62.8705 2.77346 60.7857 2.77346C58.8666 2.77346 57.5756 3.57785 56.8167 5.24528L56.6335 5.17825C56.9737 4.2398 57.0958 3.54433 57.1045 2.71481V0H54.5661V11.7307Z" fill="white"/>
<path d="M69.2722 11.9485C71.3221 11.9485 72.8137 11.0687 73.3633 9.57724L73.5377 9.61914C73.2063 11.2447 73.5552 11.9485 75.5615 11.9485C75.8144 11.9485 76.0674 11.9234 76.2768 11.8899L76.5733 10.4403L76.1372 10.4319C75.6574 10.4235 75.5179 10.3146 75.5179 9.71969V5.68937C75.5179 3.69516 74.1396 2.73995 71.1999 2.73995C68.0771 2.73995 66.4982 3.92139 66.6291 5.96588L69.1326 6.16697C69.0279 4.81795 69.7432 4.20628 71.1476 4.20628C72.4037 4.20628 72.9969 4.65037 72.9969 5.66423V6.1586L70.5196 6.59431C68.0422 7.03839 66.4023 7.79251 66.4023 9.6359V9.66104C66.4023 11.119 67.4316 11.9485 69.2722 11.9485ZM70.284 10.323C69.4292 10.323 68.9669 10.0297 68.9669 9.42642V9.40966C68.9669 8.54662 69.7781 8.1947 71.3831 7.89306L72.9969 7.59141V8.00198C72.9969 9.35101 71.7321 10.323 70.284 10.323Z" fill="white"/>
<path d="M78.7094 11.7307H81.2478V8.05226C81.2478 5.7564 81.9893 4.91012 83.9258 4.77605L85.1732 4.68388L84.8766 2.65616C82.8267 2.80698 81.8759 3.42703 80.9338 5.25366L80.7681 5.17825C81.1781 4.00518 81.274 3.53596 81.2566 2.93266H78.7094V11.7307Z" fill="white"/>
<path d="M90.7811 11.8899C92.6653 11.8899 93.8952 11.052 94.5145 9.53535L94.6977 9.594C94.4012 10.5157 94.2441 11.2447 94.2354 11.7307H96.8V0H94.2616V2.38803C94.2616 3.30972 94.3924 4.05546 94.7065 5.06932L94.532 5.13635C93.9127 3.62812 92.674 2.7567 90.7811 2.7567C88.1642 2.7567 86.7859 4.29007 86.7859 7.22273V7.43221C86.7859 10.3565 88.1642 11.8899 90.7811 11.8899ZM91.7406 10.3816C90.1705 10.3816 89.3505 9.41804 89.3505 7.516V7.13056C89.3505 5.22014 90.1705 4.24817 91.7406 4.24817C93.3806 4.24817 94.2616 5.27042 94.2616 7.17246V7.47411C94.2616 9.36777 93.3806 10.3816 91.7406 10.3816Z" fill="white"/>
</svg>
